<svg xmlns="http://www.w3.org/2000/svg" xmlns:xlink="http://www.w3.org/1999/xlink" width="1080" zoomAndPan="magnify" viewBox="0 0 810 809.999993" height="1080" preserveAspectRatio="xMidYMid meet" version="1.2"><defs><clipPath id="810bd9f42f"><path d="M 6 2 L 809.890625 2 L 809.890625 810 L 6 810 Z M 6 2 "/></clipPath></defs><g id="b1d7b67cb2"><g clip-rule="nonzero" clip-path="url(#810bd9f42f)"><path style=" stroke:none;fill-rule:nonzero;fill:#fcf6ea;fill-opacity:1;" d="M 798.792969 788.746094 L 781.035156 788.746094 L 781.035156 749.519531 C 781.035156 743.546875 776.191406 738.863281 770.382812 738.863281 L 754.5625 738.863281 L 754.5625 378.554688 C 754.5625 372.582031 749.71875 367.898438 743.90625 367.898438 L 539.050781 367.898438 C 533.078125 367.898438 528.398438 372.742188 528.398438 378.554688 L 528.398438 583.40625 L 329.03125 583.40625 C 323.058594 583.40625 318.378906 588.25 318.378906 594.0625 L 318.378906 738.703125 L 249.609375 738.703125 L 204.570312 554.511719 C 217 541.921875 224.585938 524.648438 224.585938 505.597656 C 224.585938 477.992188 208.445312 454.101562 185.035156 442.800781 L 139.351562 338.839844 C 143.550781 329.800781 145.972656 319.953125 145.972656 309.300781 C 145.972656 298.644531 145.972656 307.039062 145.808594 305.75 L 297.714844 191.457031 C 307.078125 196.136719 317.730469 198.882812 329.03125 198.882812 C 355.34375 198.882812 378.429688 184.191406 390.214844 162.558594 L 505.796875 147.386719 L 510.15625 176.441406 C 506.605469 179.832031 503.214844 183.546875 500.308594 187.582031 C 470.605469 227.777344 479.160156 284.601562 519.359375 314.144531 C 521.296875 315.59375 523.554688 316.242188 525.652344 316.242188 C 528.882812 316.242188 532.109375 314.789062 534.210938 311.882812 C 537.761719 307.199219 536.632812 300.421875 531.949219 296.871094 C 501.277344 274.269531 494.660156 230.84375 517.421875 200.171875 C 540.019531 169.5 583.445312 162.882812 614.117188 185.644531 C 644.789062 208.246094 651.40625 251.667969 628.644531 282.339844 C 625.09375 287.023438 626.226562 293.800781 630.90625 297.355469 C 635.585938 300.90625 642.367188 299.773438 645.917969 295.09375 C 675.621094 254.898438 667.066406 198.074219 626.871094 168.53125 C 622.835938 165.464844 618.476562 163.042969 614.117188 160.785156 L 599.425781 63.121094 C 598.941406 60.375 597.488281 57.792969 595.230469 56.175781 C 592.96875 54.5625 590.0625 53.757812 587.320312 54.242188 L 585.058594 54.5625 L 582.316406 36.484375 C 579.085938 14.851562 558.746094 0 537.277344 3.230469 C 526.785156 4.84375 517.582031 10.332031 511.285156 18.886719 C 504.992188 27.441406 502.40625 37.9375 504.023438 48.269531 L 506.765625 66.347656 L 504.507812 66.671875 C 498.695312 67.476562 494.660156 72.964844 495.464844 78.777344 L 496.597656 86.6875 L 389.40625 94.273438 C 377.300781 73.449219 354.699219 59.246094 329.03125 59.246094 C 303.363281 59.246094 263.652344 86.363281 259.617188 121.234375 L 97.863281 242.789062 C 91.085938 240.53125 83.660156 239.238281 76.070312 239.238281 C 37.488281 239.238281 6.171875 270.554688 6.171875 309.136719 C 6.171875 347.71875 23.445312 362.410156 48.144531 373.226562 L 92.375 473.957031 C 87.535156 483.484375 84.789062 494.136719 84.789062 505.597656 C 84.789062 525.132812 92.859375 542.890625 105.9375 555.640625 L 105.9375 738.703125 L 69.292969 738.703125 C 63.320312 738.703125 58.636719 743.546875 58.636719 749.359375 L 58.636719 788.585938 L 40.878906 788.585938 C 34.90625 788.585938 30.226562 793.429688 30.226562 799.238281 C 30.226562 805.050781 35.070312 809.894531 40.878906 809.894531 L 798.953125 809.894531 C 804.925781 809.894531 809.609375 805.050781 809.609375 799.238281 C 809.609375 793.429688 804.765625 788.585938 798.953125 788.585938 Z M 528.238281 31.640625 C 531.140625 27.765625 535.339844 25.183594 540.183594 24.375 C 550.03125 22.761719 559.394531 29.703125 561.007812 39.710938 L 563.75 57.792969 L 527.589844 63.28125 L 524.847656 45.199219 C 524.199219 40.359375 525.332031 35.515625 528.238281 31.640625 Z M 577.472656 77.324219 L 579.734375 77.003906 L 591.195312 153.035156 C 570.207031 148.839844 548.253906 152.066406 529.527344 162.398438 L 518.066406 86.363281 Z M 499.664062 108.15625 L 502.40625 126.5625 L 397.800781 140.28125 C 398.445312 136.730469 398.769531 133.019531 398.769531 129.304688 C 398.769531 125.59375 398.285156 119.78125 397.316406 115.261719 L 499.664062 107.996094 Z M 328.871094 80.875 C 355.667969 80.875 377.300781 102.667969 377.300781 129.304688 C 377.300781 155.941406 355.507812 177.734375 328.871094 177.734375 C 302.234375 177.734375 280.441406 155.941406 280.441406 129.304688 C 280.441406 102.667969 302.234375 80.875 328.871094 80.875 Z M 625.09375 389.207031 L 657.542969 389.207031 L 657.542969 444.578125 L 648.824219 435.859375 C 646.886719 433.921875 644.144531 432.792969 641.238281 432.792969 C 638.332031 432.792969 635.75 433.921875 633.652344 435.859375 L 624.933594 444.578125 L 624.933594 389.207031 Z M 549.707031 594.222656 L 549.707031 389.367188 L 603.785156 389.367188 L 603.785156 470.566406 C 603.785156 474.925781 606.367188 478.800781 610.40625 480.414062 C 614.441406 482.03125 618.960938 481.222656 622.027344 478.15625 L 641.398438 458.785156 L 660.769531 478.15625 C 662.871094 480.253906 665.613281 481.222656 668.359375 481.222656 C 671.101562 481.222656 671.101562 480.898438 672.394531 480.414062 C 676.429688 478.800781 679.011719 474.925781 679.011719 470.566406 L 679.011719 389.367188 L 733.089844 389.367188 L 733.089844 738.863281 L 549.546875 738.863281 L 549.546875 594.222656 Z M 443.164062 604.878906 L 460.597656 604.878906 L 460.597656 661.214844 L 443.164062 661.214844 Z M 404.421875 604.878906 L 421.855469 604.878906 L 421.855469 661.214844 L 404.421875 661.214844 Z M 339.523438 604.878906 L 382.949219 604.878906 L 382.949219 671.871094 C 382.949219 677.84375 387.792969 682.527344 393.605469 682.527344 L 471.253906 682.527344 C 477.226562 682.527344 481.90625 677.683594 481.90625 671.871094 L 481.90625 604.878906 L 528.074219 604.878906 L 528.074219 738.863281 L 339.363281 738.863281 L 339.363281 604.878906 Z M 227.492188 738.863281 L 127.40625 738.863281 L 127.40625 570.007812 C 135.800781 573.558594 145.003906 575.496094 154.6875 575.496094 C 164.375 575.496094 176.480469 572.753906 185.84375 568.070312 L 227.65625 738.703125 Z M 203.117188 505.761719 C 203.117188 532.558594 181.324219 554.1875 154.6875 554.1875 C 128.050781 554.1875 106.257812 532.394531 106.257812 505.761719 C 106.257812 479.125 128.050781 457.332031 154.6875 457.332031 C 181.324219 457.332031 203.117188 479.125 203.117188 505.761719 Z M 261.394531 146.902344 C 264.621094 159.167969 270.917969 169.984375 279.472656 178.703125 L 140.644531 283.148438 C 135.960938 271.6875 128.214844 261.839844 118.527344 254.253906 L 261.230469 146.902344 Z M 27.480469 309.460938 C 27.480469 282.664062 49.273438 261.03125 75.910156 261.03125 C 102.546875 261.03125 124.339844 282.824219 124.339844 309.460938 C 124.339844 336.097656 102.546875 357.890625 75.910156 357.890625 C 49.273438 357.890625 27.480469 336.097656 27.480469 309.460938 Z M 73.972656 379.199219 C 74.617188 379.199219 75.265625 379.199219 75.910156 379.199219 C 94.960938 379.199219 112.070312 371.613281 124.664062 359.179688 L 158.402344 436.023438 C 157.109375 436.023438 155.816406 435.859375 154.367188 435.859375 C 136.125 435.859375 119.335938 442.964844 106.90625 454.585938 L 73.8125 379.199219 Z M 759.726562 788.746094 L 79.945312 788.746094 L 79.945312 760.335938 L 759.726562 760.335938 Z M 127.566406 504.953125 C 127.566406 519.804688 139.675781 532.074219 154.6875 532.074219 C 169.699219 532.074219 181.808594 519.964844 181.808594 504.953125 C 181.808594 489.941406 169.699219 477.832031 154.6875 477.832031 C 139.675781 477.832031 127.566406 489.941406 127.566406 504.953125 Z M 160.339844 504.953125 C 160.339844 508.019531 157.753906 510.601562 154.6875 510.601562 C 151.621094 510.601562 149.039062 508.019531 149.039062 504.953125 C 149.039062 501.886719 151.621094 499.300781 154.6875 499.300781 C 157.753906 499.300781 160.339844 501.886719 160.339844 504.953125 Z M 103.03125 309.460938 C 103.03125 294.609375 90.921875 282.339844 75.910156 282.339844 C 60.898438 282.339844 48.789062 294.449219 48.789062 309.460938 C 48.789062 324.472656 60.898438 336.582031 75.910156 336.582031 C 90.921875 336.582031 103.03125 324.472656 103.03125 309.460938 Z M 70.421875 309.460938 C 70.421875 306.394531 73.003906 303.8125 76.070312 303.8125 C 79.140625 303.8125 81.722656 306.394531 81.722656 309.460938 C 81.722656 312.527344 79.140625 315.109375 76.070312 315.109375 C 73.003906 315.109375 70.421875 312.527344 70.421875 309.460938 Z M 328.871094 156.425781 C 343.722656 156.425781 355.992188 144.316406 355.992188 129.304688 C 355.992188 114.292969 343.882812 102.183594 328.871094 102.183594 C 313.859375 102.183594 301.75 114.292969 301.75 129.304688 C 301.75 144.316406 313.859375 156.425781 328.871094 156.425781 Z M 328.871094 123.65625 C 331.9375 123.65625 334.519531 126.238281 334.519531 129.304688 C 334.519531 132.371094 331.9375 134.957031 328.871094 134.957031 C 325.804688 134.957031 323.222656 132.371094 323.222656 129.304688 C 323.222656 126.238281 325.804688 123.65625 328.871094 123.65625 Z M 532.433594 44.070312 C 531.625 38.257812 535.5 32.769531 541.472656 31.964844 C 547.445312 30.996094 552.773438 35.03125 553.582031 41.003906 L 554.226562 45.363281 C 555.035156 51.171875 551.160156 56.660156 545.1875 57.46875 C 544.703125 57.46875 544.058594 57.46875 543.574219 57.46875 C 538.40625 57.46875 533.886719 53.59375 533.078125 48.429688 Z M 532.433594 44.070312 "/></g></g></svg>