<svg xmlns="http://www.w3.org/2000/svg" xmlns:xlink="http://www.w3.org/1999/xlink" width="1080" zoomAndPan="magnify" viewBox="0 0 810 809.999993" height="1080" preserveAspectRatio="xMidYMid meet" version="1.0"><defs><clipPath id="39c3fd65bd"><path d="M 6 2 L 809.890625 2 L 809.890625 810 L 6 810 Z M 6 2 " clip-rule="nonzero"/></clipPath></defs><g clip-path="url(#39c3fd65bd)"><path fill="#ffffff" d="M 798.898438 788.851562 L 781.136719 788.851562 L 781.136719 749.617188 C 781.136719 743.644531 776.292969 738.960938 770.480469 738.960938 L 754.660156 738.960938 L 754.660156 378.601562 C 754.660156 372.628906 749.816406 367.945312 744.003906 367.945312 L 539.121094 367.945312 C 533.148438 367.945312 528.46875 372.789062 528.46875 378.601562 L 528.46875 583.484375 L 329.074219 583.484375 C 323.101562 583.484375 318.417969 588.328125 318.417969 594.140625 L 318.417969 738.800781 L 249.640625 738.800781 L 204.597656 554.585938 C 217.027344 541.992188 224.617188 524.714844 224.617188 505.664062 C 224.617188 478.054688 208.472656 454.160156 185.058594 442.859375 L 139.371094 338.886719 C 143.566406 329.84375 145.988281 319.996094 145.988281 309.339844 C 145.988281 298.683594 145.988281 307.078125 145.828125 305.789062 L 297.753906 191.480469 C 307.117188 196.164062 317.773438 198.90625 329.074219 198.90625 C 355.390625 198.90625 378.480469 184.214844 390.265625 162.582031 L 505.863281 147.40625 L 510.222656 176.464844 C 506.671875 179.855469 503.28125 183.570312 500.375 187.605469 C 470.667969 227.808594 479.222656 284.636719 519.425781 314.183594 C 521.363281 315.636719 523.625 316.28125 525.722656 316.28125 C 528.949219 316.28125 532.179688 314.828125 534.277344 311.921875 C 537.832031 307.242188 536.699219 300.460938 532.019531 296.910156 C 501.34375 274.304688 494.722656 230.875 517.488281 200.199219 C 540.089844 169.523438 583.523438 162.902344 614.195312 185.667969 C 644.871094 208.273438 651.492188 251.703125 628.726562 282.378906 C 625.175781 287.058594 626.304688 293.839844 630.988281 297.394531 C 635.671875 300.945312 642.453125 299.816406 646.003906 295.132812 C 675.710938 254.929688 667.152344 198.101562 626.953125 168.554688 C 622.914062 165.488281 618.554688 163.066406 614.195312 160.804688 L 599.503906 63.128906 C 599.019531 60.382812 597.566406 57.800781 595.308594 56.183594 C 593.046875 54.570312 590.140625 53.761719 587.394531 54.246094 L 585.136719 54.570312 L 582.390625 36.488281 C 579.164062 14.855469 558.820312 0 537.347656 3.230469 C 526.851562 4.84375 517.648438 10.332031 511.351562 18.890625 C 505.054688 27.445312 502.472656 37.941406 504.085938 48.273438 L 506.832031 66.355469 L 504.570312 66.679688 C 498.757812 67.488281 494.722656 72.976562 495.53125 78.789062 L 496.660156 86.699219 L 389.457031 94.289062 C 377.347656 73.460938 354.746094 59.253906 329.074219 59.253906 C 303.402344 59.253906 263.6875 86.375 259.652344 121.25 L 97.875 242.824219 C 91.097656 240.5625 83.667969 239.269531 76.082031 239.269531 C 37.492188 239.269531 6.171875 270.59375 6.171875 309.179688 C 6.171875 347.765625 23.449219 362.457031 48.148438 373.273438 L 92.386719 474.019531 C 87.542969 483.546875 84.800781 494.203125 84.800781 505.664062 C 84.800781 525.199219 92.871094 542.960938 105.949219 555.714844 L 105.949219 738.800781 L 69.300781 738.800781 C 63.328125 738.800781 58.644531 743.644531 58.644531 749.457031 L 58.644531 788.6875 L 40.882812 788.6875 C 34.910156 788.6875 30.230469 793.53125 30.230469 799.34375 C 30.230469 805.15625 35.074219 810 40.882812 810 L 799.058594 810 C 805.03125 810 809.714844 805.15625 809.714844 799.34375 C 809.714844 793.53125 804.871094 788.6875 799.058594 788.6875 Z M 528.304688 31.644531 C 531.210938 27.769531 535.410156 25.1875 540.253906 24.378906 C 550.101562 22.765625 559.464844 29.707031 561.078125 39.71875 L 563.824219 57.800781 L 527.660156 63.289062 L 524.914062 45.207031 C 524.269531 40.363281 525.398438 35.519531 528.304688 31.644531 Z M 577.546875 77.335938 L 579.808594 77.011719 L 591.269531 153.054688 C 570.28125 148.859375 548.324219 152.085938 529.597656 162.417969 L 518.132812 86.375 Z M 499.730469 108.171875 L 502.472656 126.578125 L 397.851562 140.300781 C 398.5 136.75 398.820312 133.035156 398.820312 129.324219 C 398.820312 125.609375 398.335938 119.796875 397.367188 115.277344 L 499.730469 108.011719 Z M 328.914062 80.886719 C 355.714844 80.886719 377.347656 102.683594 377.347656 129.324219 C 377.347656 155.960938 355.550781 177.757812 328.914062 177.757812 C 302.273438 177.757812 280.476562 155.960938 280.476562 129.324219 C 280.476562 102.683594 302.273438 80.886719 328.914062 80.886719 Z M 625.175781 389.257812 L 657.628906 389.257812 L 657.628906 444.636719 L 648.910156 435.917969 C 646.972656 433.980469 644.226562 432.851562 641.320312 432.851562 C 638.414062 432.851562 635.832031 433.980469 633.734375 435.917969 L 625.015625 444.636719 L 625.015625 389.257812 Z M 549.777344 594.300781 L 549.777344 389.421875 L 603.863281 389.421875 L 603.863281 470.628906 C 603.863281 474.988281 606.449219 478.863281 610.484375 480.476562 C 614.519531 482.09375 619.039062 481.285156 622.109375 478.21875 L 641.484375 458.84375 L 660.855469 478.21875 C 662.957031 480.316406 665.699219 481.285156 668.445312 481.285156 C 671.191406 481.285156 671.191406 480.960938 672.480469 480.476562 C 676.515625 478.863281 679.101562 474.988281 679.101562 470.628906 L 679.101562 389.421875 L 733.1875 389.421875 L 733.1875 738.960938 L 549.617188 738.960938 L 549.617188 594.300781 Z M 443.21875 604.957031 L 460.65625 604.957031 L 460.65625 661.304688 L 443.21875 661.304688 Z M 404.472656 604.957031 L 421.910156 604.957031 L 421.910156 661.304688 L 404.472656 661.304688 Z M 339.570312 604.957031 L 383 604.957031 L 383 671.960938 C 383 677.933594 387.84375 682.613281 393.65625 682.613281 L 471.3125 682.613281 C 477.285156 682.613281 481.96875 677.773438 481.96875 671.960938 L 481.96875 604.957031 L 528.144531 604.957031 L 528.144531 738.960938 L 339.40625 738.960938 L 339.40625 604.957031 Z M 227.523438 738.960938 L 127.421875 738.960938 L 127.421875 570.082031 C 135.816406 573.636719 145.019531 575.574219 154.707031 575.574219 C 164.394531 575.574219 176.503906 572.828125 185.867188 568.144531 L 227.683594 738.800781 Z M 203.144531 505.828125 C 203.144531 532.628906 181.347656 554.261719 154.707031 554.261719 C 128.066406 554.261719 106.273438 532.464844 106.273438 505.828125 C 106.273438 479.1875 128.066406 457.390625 154.707031 457.390625 C 181.347656 457.390625 203.144531 479.1875 203.144531 505.828125 Z M 261.425781 146.921875 C 264.65625 159.191406 270.953125 170.007812 279.507812 178.726562 L 140.660156 283.183594 C 135.980469 271.722656 128.230469 261.875 118.542969 254.285156 L 261.265625 146.921875 Z M 27.484375 309.5 C 27.484375 282.699219 49.28125 261.066406 75.917969 261.066406 C 102.558594 261.066406 124.355469 282.863281 124.355469 309.5 C 124.355469 336.140625 102.558594 357.9375 75.917969 357.9375 C 49.28125 357.9375 27.484375 336.140625 27.484375 309.5 Z M 73.980469 379.25 C 74.628906 379.25 75.273438 379.25 75.917969 379.25 C 94.972656 379.25 112.085938 371.660156 124.679688 359.230469 L 158.421875 436.078125 C 157.128906 436.078125 155.835938 435.917969 154.382812 435.917969 C 136.140625 435.917969 119.351562 443.023438 106.917969 454.644531 L 73.820312 379.25 Z M 759.828125 788.851562 L 79.957031 788.851562 L 79.957031 760.433594 L 759.828125 760.433594 Z M 127.582031 505.019531 C 127.582031 519.871094 139.691406 532.144531 154.707031 532.144531 C 169.722656 532.144531 181.832031 520.035156 181.832031 505.019531 C 181.832031 490.003906 169.722656 477.894531 154.707031 477.894531 C 139.691406 477.894531 127.582031 490.003906 127.582031 505.019531 Z M 160.359375 505.019531 C 160.359375 508.085938 157.773438 510.667969 154.707031 510.667969 C 151.640625 510.667969 149.058594 508.085938 149.058594 505.019531 C 149.058594 501.953125 151.640625 499.367188 154.707031 499.367188 C 157.773438 499.367188 160.359375 501.953125 160.359375 505.019531 Z M 103.042969 309.5 C 103.042969 294.648438 90.933594 282.378906 75.917969 282.378906 C 60.90625 282.378906 48.796875 294.488281 48.796875 309.5 C 48.796875 324.515625 60.90625 336.625 75.917969 336.625 C 90.933594 336.625 103.042969 324.515625 103.042969 309.5 Z M 70.429688 309.5 C 70.429688 306.433594 73.011719 303.851562 76.082031 303.851562 C 79.148438 303.851562 81.730469 306.433594 81.730469 309.5 C 81.730469 312.570312 79.148438 315.152344 76.082031 315.152344 C 73.011719 315.152344 70.429688 312.570312 70.429688 309.5 Z M 328.914062 156.445312 C 343.765625 156.445312 356.035156 144.335938 356.035156 129.324219 C 356.035156 114.308594 343.929688 102.199219 328.914062 102.199219 C 313.898438 102.199219 301.789062 114.308594 301.789062 129.324219 C 301.789062 144.335938 313.898438 156.445312 328.914062 156.445312 Z M 328.914062 123.671875 C 331.980469 123.671875 334.5625 126.253906 334.5625 129.324219 C 334.5625 132.390625 331.980469 134.972656 328.914062 134.972656 C 325.847656 134.972656 323.261719 132.390625 323.261719 129.324219 C 323.261719 126.253906 325.847656 123.671875 328.914062 123.671875 Z M 532.503906 44.074219 C 531.695312 38.265625 535.570312 32.773438 541.542969 31.96875 C 547.519531 31 552.847656 35.035156 553.652344 41.007812 L 554.300781 45.367188 C 555.105469 51.179688 551.230469 56.667969 545.257812 57.476562 C 544.773438 57.476562 544.128906 57.476562 543.644531 57.476562 C 538.476562 57.476562 533.957031 53.601562 533.148438 48.433594 Z M 532.503906 44.074219 " fill-opacity="1" fill-rule="nonzero"/></g></svg>