<svg xmlns="http://www.w3.org/2000/svg" xmlns:xlink="http://www.w3.org/1999/xlink" width="1920" zoomAndPan="magnify" viewBox="0 0 1440 809.999993" height="1080" preserveAspectRatio="xMidYMid meet" version="1.0"><defs><clipPath id="53e2eba8af"><path d="M 158.917969 0 L 1280.917969 0 L 1280.917969 810 L 158.917969 810 Z M 158.917969 0 " clip-rule="nonzero"/></clipPath></defs><g clip-path="url(#53e2eba8af)"><path fill="#292f33" d="M 1280.914062 685.792969 C 1280.914062 754.675781 1225.09375 810.523438 1156.246094 810.523438 L 283.585938 810.523438 C 214.742188 810.523438 158.921875 754.675781 158.921875 685.792969 L 158.921875 124.503906 C 158.921875 55.621094 214.742188 -0.226562 283.585938 -0.226562 L 1156.246094 -0.226562 C 1225.09375 -0.226562 1280.914062 55.621094 1280.914062 124.503906 Z M 1280.914062 685.792969 " fill-opacity="1" fill-rule="nonzero"/></g><path fill="#ccd6dd" d="M 501.75 592.246094 C 501.75 661.128906 477.097656 685.792969 408.253906 685.792969 L 283.585938 685.792969 C 214.742188 685.792969 190.085938 661.128906 190.085938 592.246094 L 190.085938 218.050781 C 190.085938 149.167969 214.742188 124.503906 283.585938 124.503906 L 408.253906 124.503906 C 477.097656 124.503906 501.75 149.167969 501.75 218.050781 Z M 875.75 592.246094 C 875.75 661.128906 851.097656 685.792969 782.25 685.792969 L 657.585938 685.792969 C 588.738281 685.792969 564.085938 661.128906 564.085938 592.246094 L 564.085938 218.050781 C 564.085938 149.167969 588.738281 124.503906 657.585938 124.503906 L 782.25 124.503906 C 851.097656 124.503906 875.75 149.167969 875.75 218.050781 Z M 1249.746094 592.246094 C 1249.746094 661.128906 1225.09375 685.792969 1156.246094 685.792969 L 1031.582031 685.792969 C 962.734375 685.792969 938.082031 661.128906 938.082031 592.246094 L 938.082031 218.050781 C 938.082031 149.167969 962.734375 124.503906 1031.582031 124.503906 L 1156.246094 124.503906 C 1225.09375 124.503906 1249.746094 149.167969 1249.746094 218.050781 Z M 1249.746094 592.246094 " fill-opacity="1" fill-rule="nonzero"/><path fill="#e1e8ed" d="M 190.085938 249.234375 L 501.75 249.234375 L 501.75 561.0625 L 190.085938 561.0625 Z M 564.085938 249.234375 L 875.75 249.234375 L 875.75 561.0625 L 564.085938 561.0625 Z M 938.082031 249.234375 L 1249.746094 249.234375 L 1249.746094 561.0625 L 938.082031 561.0625 Z M 938.082031 249.234375 " fill-opacity="1" fill-rule="nonzero"/><path fill="#be1931" d="M 1118.691406 332.960938 L 1030.925781 332.960938 C 1012.414062 332.960938 1005.589844 320.953125 1005.589844 309.292969 C 1005.589844 297.289062 1012.101562 285.625 1030.925781 285.625 L 1155.0625 285.625 C 1172.546875 285.625 1179.746094 301.402344 1179.746094 310.320312 C 1179.746094 317.183594 1175.976562 324.386719 1171.859375 332.960938 L 1086.808594 505.867188 C 1077.207031 525.046875 1073.4375 531.9375 1057.980469 531.9375 C 1039.15625 531.9375 1029.554688 517.5 1029.554688 507.582031 C 1029.554688 503.4375 1030.582031 500.347656 1032.953125 495.578125 Z M 744.695312 332.960938 L 656.929688 332.960938 C 638.417969 332.960938 631.558594 320.953125 631.558594 309.292969 C 631.558594 297.289062 638.074219 285.625 656.929688 285.625 L 781.066406 285.625 C 798.550781 285.625 805.75 301.402344 805.75 310.320312 C 805.75 317.183594 801.976562 324.386719 797.863281 332.960938 L 712.8125 505.867188 C 703.210938 525.046875 699.441406 531.9375 684.011719 531.9375 C 665.15625 531.9375 655.558594 517.5 655.558594 507.582031 C 655.558594 503.4375 656.585938 500.347656 658.988281 495.578125 Z M 370.695312 332.960938 L 282.933594 332.960938 C 264.417969 332.960938 257.5625 320.953125 257.5625 309.292969 C 257.5625 297.289062 264.078125 285.625 282.933594 285.625 L 407.070312 285.625 C 424.550781 285.625 431.753906 301.402344 431.753906 310.320312 C 431.753906 317.183594 427.980469 324.386719 423.867188 332.960938 L 338.8125 505.867188 C 329.214844 525.046875 325.445312 531.9375 310.015625 531.9375 C 291.160156 531.9375 281.5625 517.5 281.5625 507.582031 C 281.5625 503.4375 282.589844 500.347656 284.988281 495.578125 Z M 370.695312 332.960938 " fill-opacity="1" fill-rule="nonzero"/><path fill="#9266cc" d="M 254.320312 124.503906 C 253.074219 129.554688 252.421875 134.761719 252.421875 140.09375 C 252.421875 183.160156 294.277344 218.050781 345.917969 218.050781 C 397.5625 218.050781 439.417969 183.160156 439.417969 140.09375 C 439.417969 134.761719 438.765625 129.554688 437.519531 124.503906 Z M 628.320312 124.503906 C 627.070312 129.554688 626.417969 134.761719 626.417969 140.09375 C 626.417969 183.160156 668.273438 218.050781 719.917969 218.050781 C 771.527344 218.050781 813.417969 183.160156 813.417969 140.09375 C 813.417969 134.761719 812.761719 129.554688 811.546875 124.503906 Z M 1002.285156 124.503906 C 1001.070312 129.554688 1000.414062 134.761719 1000.414062 140.09375 C 1000.414062 183.160156 1042.300781 218.050781 1093.914062 218.050781 C 1145.523438 218.050781 1187.414062 183.160156 1187.414062 140.09375 C 1187.414062 134.761719 1186.757812 129.554688 1185.511719 124.503906 Z M 1002.285156 124.503906 " fill-opacity="1" fill-rule="nonzero"/><path fill="#f4900c" d="M 433.683594 685.792969 C 437.175781 680.898438 439.417969 675.6875 439.417969 670.203125 C 439.417969 644.382812 397.5625 623.425781 345.917969 623.425781 C 294.277344 623.425781 252.421875 644.382812 252.421875 670.203125 C 252.421875 675.6875 254.664062 680.898438 258.15625 685.792969 Z M 807.679688 685.792969 C 811.171875 680.898438 813.417969 675.6875 813.417969 670.203125 C 813.417969 644.382812 771.527344 623.425781 719.917969 623.425781 C 668.273438 623.425781 626.417969 644.382812 626.417969 670.203125 C 626.417969 675.6875 628.660156 680.898438 632.152344 685.792969 Z M 1181.679688 685.792969 C 1185.167969 680.898438 1187.414062 675.6875 1187.414062 670.203125 C 1187.414062 644.382812 1145.523438 623.425781 1093.914062 623.425781 C 1042.300781 623.425781 1000.414062 644.382812 1000.414062 670.203125 C 1000.414062 675.6875 1002.660156 680.898438 1006.148438 685.792969 Z M 1181.679688 685.792969 " fill-opacity="1" fill-rule="nonzero"/></svg>