<svg xmlns="http://www.w3.org/2000/svg" xmlns:xlink="http://www.w3.org/1999/xlink" width="1080" zoomAndPan="magnify" viewBox="0 0 810 809.999993" height="1080" preserveAspectRatio="xMidYMid meet" version="1.0"><defs><clipPath id="03b13ed781"><path d="M 6 2 L 809.890625 2 L 809.890625 810 L 6 810 Z M 6 2 " clip-rule="nonzero"/></clipPath></defs><rect x="-81" width="972" fill="#ffffff" y="-80.999999" height="971.999992" fill-opacity="1"/><rect x="-81" width="972" fill="#ffffff" y="-80.999999" height="971.999992" fill-opacity="1"/><g clip-path="url(#03b13ed781)"><path fill="#231f20" d="M 798.792969 788.851562 L 781.035156 788.851562 L 781.035156 749.617188 C 781.035156 743.644531 776.191406 738.960938 770.382812 738.960938 L 754.5625 738.960938 L 754.5625 378.601562 C 754.5625 372.628906 749.71875 367.945312 743.90625 367.945312 L 539.050781 367.945312 C 533.078125 367.945312 528.398438 372.789062 528.398438 378.601562 L 528.398438 583.484375 L 329.03125 583.484375 C 323.058594 583.484375 318.378906 588.328125 318.378906 594.140625 L 318.378906 738.800781 L 249.609375 738.800781 L 204.570312 554.585938 C 217 541.992188 224.585938 524.714844 224.585938 505.664062 C 224.585938 478.054688 208.445312 454.160156 185.035156 442.859375 L 139.351562 338.886719 C 143.550781 329.84375 145.972656 319.996094 145.972656 309.339844 C 145.972656 298.683594 145.972656 307.078125 145.808594 305.789062 L 297.714844 191.480469 C 307.078125 196.164062 317.730469 198.90625 329.03125 198.90625 C 355.34375 198.90625 378.429688 184.214844 390.214844 162.582031 L 505.796875 147.40625 L 510.15625 176.464844 C 506.605469 179.855469 503.214844 183.570312 500.308594 187.605469 C 470.605469 227.808594 479.160156 284.636719 519.359375 314.183594 C 521.296875 315.636719 523.554688 316.28125 525.652344 316.28125 C 528.882812 316.28125 532.109375 314.828125 534.210938 311.921875 C 537.761719 307.242188 536.632812 300.460938 531.949219 296.910156 C 501.277344 274.304688 494.660156 230.875 517.421875 200.199219 C 540.019531 169.523438 583.445312 162.902344 614.117188 185.667969 C 644.789062 208.273438 651.40625 251.703125 628.644531 282.378906 C 625.09375 287.058594 626.226562 293.839844 630.90625 297.394531 C 635.585938 300.945312 642.367188 299.816406 645.917969 295.132812 C 675.621094 254.929688 667.066406 198.101562 626.871094 168.554688 C 622.835938 165.488281 618.476562 163.066406 614.117188 160.804688 L 599.425781 63.128906 C 598.941406 60.382812 597.488281 57.800781 595.230469 56.183594 C 592.96875 54.570312 590.0625 53.761719 587.320312 54.246094 L 585.058594 54.570312 L 582.316406 36.488281 C 579.085938 14.855469 558.746094 0 537.277344 3.230469 C 526.785156 4.84375 517.582031 10.332031 511.285156 18.890625 C 504.992188 27.445312 502.40625 37.941406 504.023438 48.273438 L 506.765625 66.355469 L 504.507812 66.679688 C 498.695312 67.488281 494.660156 72.976562 495.464844 78.789062 L 496.597656 86.699219 L 389.40625 94.289062 C 377.300781 73.460938 354.699219 59.253906 329.03125 59.253906 C 303.363281 59.253906 263.652344 86.375 259.617188 121.25 L 97.863281 242.824219 C 91.085938 240.5625 83.660156 239.269531 76.070312 239.269531 C 37.488281 239.269531 6.171875 270.59375 6.171875 309.179688 C 6.171875 347.765625 23.445312 362.457031 48.144531 373.273438 L 92.375 474.019531 C 87.535156 483.546875 84.789062 494.203125 84.789062 505.664062 C 84.789062 525.199219 92.859375 542.960938 105.9375 555.714844 L 105.9375 738.800781 L 69.292969 738.800781 C 63.320312 738.800781 58.636719 743.644531 58.636719 749.457031 L 58.636719 788.6875 L 40.878906 788.6875 C 34.90625 788.6875 30.226562 793.53125 30.226562 799.34375 C 30.226562 805.15625 35.070312 810 40.878906 810 L 798.953125 810 C 804.925781 810 809.609375 805.15625 809.609375 799.34375 C 809.609375 793.53125 804.765625 788.6875 798.953125 788.6875 Z M 528.238281 31.644531 C 531.140625 27.769531 535.339844 25.1875 540.183594 24.378906 C 550.03125 22.765625 559.394531 29.707031 561.007812 39.71875 L 563.75 57.800781 L 527.589844 63.289062 L 524.847656 45.207031 C 524.199219 40.363281 525.332031 35.519531 528.238281 31.644531 Z M 577.472656 77.335938 L 579.734375 77.011719 L 591.195312 153.054688 C 570.207031 148.859375 548.253906 152.085938 529.527344 162.417969 L 518.066406 86.375 Z M 499.664062 108.171875 L 502.40625 126.578125 L 397.800781 140.300781 C 398.445312 136.75 398.769531 133.035156 398.769531 129.324219 C 398.769531 125.609375 398.285156 119.796875 397.316406 115.277344 L 499.664062 108.011719 Z M 328.871094 80.886719 C 355.667969 80.886719 377.300781 102.683594 377.300781 129.324219 C 377.300781 155.960938 355.507812 177.757812 328.871094 177.757812 C 302.234375 177.757812 280.441406 155.960938 280.441406 129.324219 C 280.441406 102.683594 302.234375 80.886719 328.871094 80.886719 Z M 625.09375 389.257812 L 657.542969 389.257812 L 657.542969 444.636719 L 648.824219 435.917969 C 646.886719 433.980469 644.144531 432.851562 641.238281 432.851562 C 638.332031 432.851562 635.75 433.980469 633.652344 435.917969 L 624.933594 444.636719 L 624.933594 389.257812 Z M 549.707031 594.300781 L 549.707031 389.421875 L 603.785156 389.421875 L 603.785156 470.628906 C 603.785156 474.988281 606.367188 478.863281 610.40625 480.476562 C 614.441406 482.09375 618.960938 481.285156 622.027344 478.21875 L 641.398438 458.84375 L 660.769531 478.21875 C 662.871094 480.316406 665.613281 481.285156 668.359375 481.285156 C 671.101562 481.285156 671.101562 480.960938 672.394531 480.476562 C 676.429688 478.863281 679.011719 474.988281 679.011719 470.628906 L 679.011719 389.421875 L 733.089844 389.421875 L 733.089844 738.960938 L 549.546875 738.960938 L 549.546875 594.300781 Z M 443.164062 604.957031 L 460.597656 604.957031 L 460.597656 661.304688 L 443.164062 661.304688 Z M 404.421875 604.957031 L 421.855469 604.957031 L 421.855469 661.304688 L 404.421875 661.304688 Z M 339.523438 604.957031 L 382.949219 604.957031 L 382.949219 671.960938 C 382.949219 677.933594 387.792969 682.613281 393.605469 682.613281 L 471.253906 682.613281 C 477.226562 682.613281 481.90625 677.773438 481.90625 671.960938 L 481.90625 604.957031 L 528.074219 604.957031 L 528.074219 738.960938 L 339.363281 738.960938 L 339.363281 604.957031 Z M 227.492188 738.960938 L 127.40625 738.960938 L 127.40625 570.082031 C 135.800781 573.636719 145.003906 575.574219 154.6875 575.574219 C 164.375 575.574219 176.480469 572.828125 185.84375 568.144531 L 227.65625 738.800781 Z M 203.117188 505.828125 C 203.117188 532.628906 181.324219 554.261719 154.6875 554.261719 C 128.050781 554.261719 106.257812 532.464844 106.257812 505.828125 C 106.257812 479.1875 128.050781 457.390625 154.6875 457.390625 C 181.324219 457.390625 203.117188 479.1875 203.117188 505.828125 Z M 261.394531 146.921875 C 264.621094 159.191406 270.917969 170.007812 279.472656 178.726562 L 140.644531 283.183594 C 135.960938 271.722656 128.214844 261.875 118.527344 254.285156 L 261.230469 146.921875 Z M 27.480469 309.5 C 27.480469 282.699219 49.273438 261.066406 75.910156 261.066406 C 102.546875 261.066406 124.339844 282.863281 124.339844 309.5 C 124.339844 336.140625 102.546875 357.9375 75.910156 357.9375 C 49.273438 357.9375 27.480469 336.140625 27.480469 309.5 Z M 73.972656 379.25 C 74.617188 379.25 75.265625 379.25 75.910156 379.25 C 94.960938 379.25 112.070312 371.660156 124.664062 359.230469 L 158.402344 436.078125 C 157.109375 436.078125 155.816406 435.917969 154.367188 435.917969 C 136.125 435.917969 119.335938 443.023438 106.90625 454.644531 L 73.8125 379.25 Z M 759.726562 788.851562 L 79.945312 788.851562 L 79.945312 760.433594 L 759.726562 760.433594 Z M 127.566406 505.019531 C 127.566406 519.871094 139.675781 532.144531 154.6875 532.144531 C 169.699219 532.144531 181.808594 520.035156 181.808594 505.019531 C 181.808594 490.003906 169.699219 477.894531 154.6875 477.894531 C 139.675781 477.894531 127.566406 490.003906 127.566406 505.019531 Z M 160.339844 505.019531 C 160.339844 508.085938 157.753906 510.667969 154.6875 510.667969 C 151.621094 510.667969 149.039062 508.085938 149.039062 505.019531 C 149.039062 501.953125 151.621094 499.367188 154.6875 499.367188 C 157.753906 499.367188 160.339844 501.953125 160.339844 505.019531 Z M 103.03125 309.5 C 103.03125 294.648438 90.921875 282.378906 75.910156 282.378906 C 60.898438 282.378906 48.789062 294.488281 48.789062 309.5 C 48.789062 324.515625 60.898438 336.625 75.910156 336.625 C 90.921875 336.625 103.03125 324.515625 103.03125 309.5 Z M 70.421875 309.5 C 70.421875 306.433594 73.003906 303.851562 76.070312 303.851562 C 79.140625 303.851562 81.722656 306.433594 81.722656 309.5 C 81.722656 312.570312 79.140625 315.152344 76.070312 315.152344 C 73.003906 315.152344 70.421875 312.570312 70.421875 309.5 Z M 328.871094 156.445312 C 343.722656 156.445312 355.992188 144.335938 355.992188 129.324219 C 355.992188 114.308594 343.882812 102.199219 328.871094 102.199219 C 313.859375 102.199219 301.75 114.308594 301.75 129.324219 C 301.75 144.335938 313.859375 156.445312 328.871094 156.445312 Z M 328.871094 123.671875 C 331.9375 123.671875 334.519531 126.253906 334.519531 129.324219 C 334.519531 132.390625 331.9375 134.972656 328.871094 134.972656 C 325.804688 134.972656 323.222656 132.390625 323.222656 129.324219 C 323.222656 126.253906 325.804688 123.671875 328.871094 123.671875 Z M 532.433594 44.074219 C 531.625 38.265625 535.5 32.773438 541.472656 31.96875 C 547.445312 31 552.773438 35.035156 553.582031 41.007812 L 554.226562 45.367188 C 555.035156 51.179688 551.160156 56.667969 545.1875 57.476562 C 544.703125 57.476562 544.058594 57.476562 543.574219 57.476562 C 538.40625 57.476562 533.886719 53.601562 533.078125 48.433594 Z M 532.433594 44.074219 " fill-opacity="1" fill-rule="nonzero"/></g></svg>